<mxfile host="app.diagrams.net" agent="Mozilla/5.0 (Windows NT 10.0; Win64; x64) AppleWebKit/537.36 (KHTML, like Gecko) Chrome/139.0.0.0 Safari/537.36" version="28.2.0">
  <diagram name="Page-1" id="05A9gQndf-n6hnO-kbpU">
    <mxGraphModel dx="900" dy="590" grid="1" gridSize="10" guides="1" tooltips="1" connect="1" arrows="1" fold="1" page="1" pageScale="1" pageWidth="850" pageHeight="1100" math="0" shadow="0">
      <root>
        <mxCell id="0" />
        <mxCell id="1" parent="0" />
        <mxCell id="ehd2DurVukb3VRlGl7Vz-6" style="edgeStyle=orthogonalEdgeStyle;rounded=0;orthogonalLoop=1;jettySize=auto;html=1;entryX=0.5;entryY=0;entryDx=0;entryDy=0;" parent="1" source="ehd2DurVukb3VRlGl7Vz-1" target="ehd2DurVukb3VRlGl7Vz-2" edge="1">
          <mxGeometry relative="1" as="geometry" />
        </mxCell>
        <mxCell id="RB8QTETf-OfAMit0L45T-2" style="edgeStyle=orthogonalEdgeStyle;rounded=0;orthogonalLoop=1;jettySize=auto;html=1;" edge="1" parent="1" source="ehd2DurVukb3VRlGl7Vz-1" target="ehd2DurVukb3VRlGl7Vz-3">
          <mxGeometry relative="1" as="geometry" />
        </mxCell>
        <mxCell id="ehd2DurVukb3VRlGl7Vz-1" value="DMA" style="rounded=1;whiteSpace=wrap;html=1;" parent="1" vertex="1">
          <mxGeometry x="200" y="60" width="120" height="60" as="geometry" />
        </mxCell>
        <mxCell id="ehd2DurVukb3VRlGl7Vz-9" style="edgeStyle=orthogonalEdgeStyle;rounded=0;orthogonalLoop=1;jettySize=auto;html=1;entryX=0;entryY=0.5;entryDx=0;entryDy=0;" parent="1" source="ehd2DurVukb3VRlGl7Vz-2" target="ehd2DurVukb3VRlGl7Vz-3" edge="1">
          <mxGeometry relative="1" as="geometry" />
        </mxCell>
        <mxCell id="ehd2DurVukb3VRlGl7Vz-2" value="Store Skips" style="rounded=1;whiteSpace=wrap;html=1;" parent="1" vertex="1">
          <mxGeometry x="120" y="160" width="120" height="60" as="geometry" />
        </mxCell>
        <mxCell id="ehd2DurVukb3VRlGl7Vz-10" style="edgeStyle=orthogonalEdgeStyle;rounded=0;orthogonalLoop=1;jettySize=auto;html=1;" parent="1" source="ehd2DurVukb3VRlGl7Vz-3" target="ehd2DurVukb3VRlGl7Vz-4" edge="1">
          <mxGeometry relative="1" as="geometry" />
        </mxCell>
        <mxCell id="ehd2DurVukb3VRlGl7Vz-3" value="Store Delay" style="rounded=1;whiteSpace=wrap;html=1;" parent="1" vertex="1">
          <mxGeometry x="280" y="160" width="120" height="60" as="geometry" />
        </mxCell>
        <mxCell id="ehd2DurVukb3VRlGl7Vz-20" style="edgeStyle=orthogonalEdgeStyle;rounded=0;orthogonalLoop=1;jettySize=auto;html=1;" parent="1" source="ehd2DurVukb3VRlGl7Vz-4" target="ehd2DurVukb3VRlGl7Vz-5" edge="1">
          <mxGeometry relative="1" as="geometry" />
        </mxCell>
        <mxCell id="ehd2DurVukb3VRlGl7Vz-4" value="Trigger Wait" style="rounded=1;whiteSpace=wrap;html=1;" parent="1" vertex="1">
          <mxGeometry x="440" y="160" width="120" height="60" as="geometry" />
        </mxCell>
        <mxCell id="RB8QTETf-OfAMit0L45T-5" style="edgeStyle=orthogonalEdgeStyle;rounded=0;orthogonalLoop=1;jettySize=auto;html=1;entryX=1;entryY=0.5;entryDx=0;entryDy=0;" edge="1" parent="1" source="ehd2DurVukb3VRlGl7Vz-5" target="ehd2DurVukb3VRlGl7Vz-4">
          <mxGeometry relative="1" as="geometry">
            <mxPoint x="580" y="190" as="targetPoint" />
            <Array as="points">
              <mxPoint x="580" y="290" />
              <mxPoint x="580" y="190" />
            </Array>
          </mxGeometry>
        </mxCell>
        <mxCell id="RB8QTETf-OfAMit0L45T-6" style="edgeStyle=orthogonalEdgeStyle;rounded=0;orthogonalLoop=1;jettySize=auto;html=1;entryX=1;entryY=0.5;entryDx=0;entryDy=0;" edge="1" parent="1" source="ehd2DurVukb3VRlGl7Vz-5" target="ehd2DurVukb3VRlGl7Vz-12">
          <mxGeometry relative="1" as="geometry" />
        </mxCell>
        <mxCell id="ehd2DurVukb3VRlGl7Vz-5" value="Trigger Skip&lt;div&gt;and Decrement&lt;/div&gt;" style="rounded=1;whiteSpace=wrap;html=1;" parent="1" vertex="1">
          <mxGeometry x="440" y="260" width="120" height="60" as="geometry" />
        </mxCell>
        <mxCell id="RB8QTETf-OfAMit0L45T-7" style="edgeStyle=orthogonalEdgeStyle;rounded=0;orthogonalLoop=1;jettySize=auto;html=1;" edge="1" parent="1" source="ehd2DurVukb3VRlGl7Vz-12" target="ehd2DurVukb3VRlGl7Vz-15">
          <mxGeometry relative="1" as="geometry" />
        </mxCell>
        <mxCell id="ehd2DurVukb3VRlGl7Vz-12" value="Delay Loop" style="rounded=1;whiteSpace=wrap;html=1;" parent="1" vertex="1">
          <mxGeometry x="280" y="260" width="120" height="60" as="geometry" />
        </mxCell>
        <mxCell id="RB8QTETf-OfAMit0L45T-8" style="edgeStyle=orthogonalEdgeStyle;rounded=0;orthogonalLoop=1;jettySize=auto;html=1;" edge="1" parent="1" source="ehd2DurVukb3VRlGl7Vz-15" target="ehd2DurVukb3VRlGl7Vz-2">
          <mxGeometry relative="1" as="geometry" />
        </mxCell>
        <mxCell id="ehd2DurVukb3VRlGl7Vz-15" value="10 Cycle Pulse" style="rounded=1;whiteSpace=wrap;html=1;" parent="1" vertex="1">
          <mxGeometry x="120" y="260" width="120" height="60" as="geometry" />
        </mxCell>
        <mxCell id="RB8QTETf-OfAMit0L45T-4" style="edgeStyle=orthogonalEdgeStyle;rounded=0;orthogonalLoop=1;jettySize=auto;html=1;" edge="1" parent="1" source="RB8QTETf-OfAMit0L45T-3" target="ehd2DurVukb3VRlGl7Vz-4">
          <mxGeometry relative="1" as="geometry" />
        </mxCell>
        <mxCell id="RB8QTETf-OfAMit0L45T-3" value="External Trigger" style="rounded=1;whiteSpace=wrap;html=1;" vertex="1" parent="1">
          <mxGeometry x="440" y="60" width="120" height="60" as="geometry" />
        </mxCell>
      </root>
    </mxGraphModel>
  </diagram>
</mxfile>
